<svg width="94" height="133" viewBox="0 0 94 133" fill="none" xmlns="http://www.w3.org/2000/svg">
<path fill-rule="evenodd" clip-rule="evenodd" d="M3.8147e-06 15C3.8147e-06 6.71574 6.71573 0 15 0H79C87.2843 0 94 6.71573 94 15L94 91.6127C90.6721 91.6127 87.9743 94.2848 87.9743 97.581C87.9743 100.877 90.6721 103.549 94 103.549L94 117.495C94 125.78 87.2843 132.495 79 132.495H15C6.71573 132.495 3.8147e-06 125.78 3.8147e-06 117.495L0 103.549C3.32787 103.549 6.02564 100.877 6.02564 97.581C6.02564 94.2848 3.32787 91.6127 0 91.6127L3.8147e-06 15Z" fill="#32363D"/>
<path d="M13.8762 109.617H15.418V124.538H13.8762V109.617ZM16.9598 109.617H17.7307V124.538H16.9598V109.617ZM18.5016 109.617H20.0434V124.538H18.5016V109.617ZM20.8143 109.617H22.3561V124.538H20.8143V109.617ZM23.127 109.617H24.6688V124.538H23.127V109.617ZM25.4397 109.617H26.2106V124.538H25.4397V109.617ZM26.9815 109.617H29.2942V124.538H26.9815V109.617Z" fill="#FFFBE0"/>
<path d="M46.9502 109.617H48.492V124.538H46.9502V109.617ZM50.0338 109.617H50.8047V124.538H50.0338V109.617ZM51.5756 109.617H53.1174V124.538H51.5756V109.617ZM53.8883 109.617H55.4301V124.538H53.8883V109.617ZM56.201 109.617H57.7428V124.538H56.201V109.617ZM58.5137 109.617H59.2846V124.538H58.5137V109.617ZM60.0555 109.617H62.3682V124.538H60.0555V109.617Z" fill="#FFFBE0"/>
<path d="M30.5376 109.517H32.0794V124.438H30.5376V109.517ZM33.6212 109.517H34.3921V124.438H33.6212V109.517ZM35.163 109.517H36.7048V124.438H35.163V109.517ZM37.4757 109.517H39.0175V124.438H37.4757V109.517ZM39.7884 109.517H41.3302V124.438H39.7884V109.517ZM42.1011 109.517H42.872V124.438H42.1011V109.517ZM43.6429 109.517H45.9556V124.438H43.6429V109.517Z" fill="#FFFBE0"/>
<path d="M63.6118 109.517H65.1536V124.438H63.6118V109.517ZM66.6954 109.517H67.4663V124.438H66.6954V109.517ZM68.2372 109.517H69.779V124.438H68.2372V109.517ZM70.5499 109.517H72.0917V124.438H70.5499V109.517ZM72.8626 109.517H74.4044V124.438H72.8626V109.517ZM75.1753 109.517H75.9462V124.438H75.1753V109.517ZM76.7171 109.517H78.9302V124.438H76.7171V109.517Z" fill="#FFFBE0"/>
<line x1="6.11743" y1="97.6777" x2="87.5841" y2="97.6777" stroke="#FFFBE0" stroke-dasharray="5 5"/>
<path d="M31.5554 36.0634C30.9954 37.2954 30.5634 38.4074 30.2594 39.3994C29.9554 40.3914 29.6834 41.3354 29.4434 42.2314C29.2194 43.1274 28.9794 43.9994 28.7234 44.8474C28.4834 45.6954 28.1394 46.5834 27.6914 47.5114C27.1954 48.5354 26.6434 49.2874 26.0354 49.7674C25.4434 50.2314 24.8594 50.5034 24.2834 50.5834C23.7234 50.6634 23.2194 50.5914 22.7714 50.3674C22.3234 50.1274 22.0114 49.8154 21.8354 49.4314C21.6594 49.0474 21.6594 48.6394 21.8354 48.2074C22.0114 47.7594 22.4434 47.3674 23.1314 47.0314C23.5474 46.8234 23.9474 46.4554 24.3314 45.9274C24.7154 45.3994 25.0834 44.7914 25.4354 44.1034C25.8034 43.3994 26.1474 42.6394 26.4674 41.8234C26.8034 41.0074 27.1234 40.1994 27.4274 39.3994C27.7474 38.5994 28.0514 37.8474 28.3394 37.1434C28.6434 36.4394 28.9474 35.8394 29.2514 35.3434C29.4114 35.0874 29.4914 34.8954 29.4914 34.7674C29.4914 34.6394 29.4434 34.5594 29.3474 34.5274C29.0114 34.4154 28.6594 34.4634 28.2914 34.6714C27.9234 34.8634 27.5714 35.1274 27.2354 35.4634C26.9154 35.7994 26.6194 36.1594 26.3474 36.5434C26.0914 36.9114 25.8914 37.2234 25.7474 37.4794C25.4114 38.0714 25.0354 38.4314 24.6194 38.5594C24.2034 38.6874 23.8114 38.6714 23.4434 38.5114C23.0914 38.3354 22.8114 38.0474 22.6034 37.6474C22.3954 37.2474 22.3394 36.8154 22.4354 36.3514C22.5314 35.8714 22.8194 35.3914 23.2994 34.9114C23.7954 34.4314 24.5554 34.0314 25.5794 33.7114C26.4114 33.4394 27.1954 33.2874 27.9314 33.2554C28.6674 33.2074 29.4354 33.2234 30.2354 33.3034C30.4434 33.0314 30.6994 32.8554 31.0034 32.7754C31.3234 32.6954 31.6114 32.6794 31.8674 32.7274C32.1394 32.7754 32.3554 32.8874 32.5154 33.0634C32.6914 33.2234 32.7554 33.4154 32.7074 33.6394C33.2194 33.7034 33.6674 33.7754 34.0514 33.8554C34.4514 33.9194 34.8114 33.9594 35.1314 33.9754C35.4674 33.9754 35.7794 33.9434 36.0674 33.8794C36.3714 33.8154 36.6834 33.6874 37.0034 33.4954C37.4194 33.2394 37.7954 33.1354 38.1314 33.1834C38.4674 33.2154 38.7394 33.3354 38.9474 33.5434C39.1554 33.7514 39.2834 34.0154 39.3314 34.3354C39.3954 34.6554 39.3554 34.9754 39.2114 35.2954C39.0834 35.5994 38.8434 35.8714 38.4914 36.1114C38.1394 36.3354 37.6594 36.4634 37.0514 36.4954C36.6194 36.5274 36.2514 36.5114 35.9474 36.4474C35.6434 36.3834 35.3474 36.2954 35.0594 36.1834C34.7874 36.0554 34.5074 35.9194 34.2194 35.7754C33.9474 35.6154 33.6194 35.4634 33.2354 35.3194C33.0594 35.2554 32.8994 35.1994 32.7554 35.1514C32.6114 35.0874 32.4754 35.0714 32.3474 35.1034C32.2194 35.1354 32.0914 35.2234 31.9634 35.3674C31.8354 35.5114 31.6994 35.7434 31.5554 36.0634ZM34.0096 46.7434C34.2016 46.7914 34.4176 46.7194 34.6576 46.5274C34.9136 46.3354 35.1856 46.0714 35.4736 45.7354C35.7616 45.3834 36.0576 44.9834 36.3616 44.5354C36.6816 44.0714 36.9936 43.6074 37.2976 43.1434C37.3616 43.0314 37.4656 42.9754 37.6096 42.9754C37.7536 42.9594 37.8816 42.9834 37.9936 43.0474C38.1216 43.1114 38.2176 43.2074 38.2816 43.3354C38.3616 43.4474 38.3696 43.5754 38.3056 43.7194C37.8416 44.6474 37.3856 45.4794 36.9376 46.2154C36.5056 46.9354 36.0576 47.5434 35.5936 48.0394C35.1456 48.5354 34.6736 48.9034 34.1776 49.1434C33.6816 49.3834 33.1536 49.4714 32.5936 49.4074C31.9376 49.3274 31.4496 49.0954 31.1296 48.7114C30.8256 48.3274 30.6416 47.8634 30.5776 47.3194C30.4976 46.7594 30.5216 46.1514 30.6496 45.4954C30.7776 44.8234 30.9536 44.1674 31.1776 43.5274C31.4176 42.8874 31.6816 42.2954 31.9696 41.7514C32.2576 41.2074 32.5296 40.7754 32.7856 40.4554C33.0096 40.1834 33.2816 40.0074 33.6016 39.9274C33.9376 39.8314 34.2576 39.8154 34.5616 39.8794C34.8816 39.9434 35.1456 40.0794 35.3536 40.2874C35.5616 40.4954 35.6576 40.7514 35.6416 41.0554C35.6256 41.4234 35.5136 41.7114 35.3056 41.9194C35.0976 42.1274 34.8896 42.3514 34.6816 42.5914C34.4576 42.8634 34.2416 43.2154 34.0336 43.6474C33.8256 44.0794 33.6656 44.5114 33.5536 44.9434C33.4416 45.3754 33.4096 45.7674 33.4576 46.1194C33.5056 46.4554 33.6896 46.6634 34.0096 46.7434ZM35.9296 37.0234C36.2816 37.1514 36.5216 37.3834 36.6496 37.7194C36.7936 38.0394 36.7936 38.3754 36.6496 38.7274C36.5056 39.0634 36.2576 39.3114 35.9056 39.4714C35.5696 39.6154 35.2256 39.6234 34.8736 39.4954C34.5216 39.3674 34.2736 39.1434 34.1296 38.8234C34.0016 38.5034 34.0096 38.1674 34.1536 37.8154C34.2976 37.4794 34.5376 37.2314 34.8736 37.0714C35.2256 36.9114 35.5776 36.8954 35.9296 37.0234ZM45.4705 43.1194C45.5345 43.0074 45.6385 42.9434 45.7825 42.9274C45.9265 42.9114 46.0625 42.9354 46.1905 42.9994C46.3185 43.0634 46.4145 43.1594 46.4785 43.2874C46.5585 43.3994 46.5665 43.5274 46.5025 43.6714C46.2305 44.2314 45.8865 44.8474 45.4705 45.5194C45.0705 46.1914 44.5825 46.8154 44.0065 47.3914C43.4465 47.9674 42.7985 48.4474 42.0625 48.8314C41.3265 49.2154 40.5025 49.4074 39.5905 49.4074C38.7425 49.3914 38.0545 49.2154 37.5265 48.8794C36.9985 48.5274 36.6145 48.0794 36.3745 47.5354C36.1345 46.9754 36.0305 46.3514 36.0625 45.6634C36.0785 44.9754 36.1985 44.3034 36.4225 43.6474C36.6625 42.9754 36.9905 42.3514 37.4065 41.7754C37.8225 41.1834 38.3025 40.7114 38.8465 40.3594C39.4065 39.9914 40.0145 39.7754 40.6705 39.7114C41.3425 39.6474 42.0465 39.8074 42.7825 40.1914C43.1505 40.3834 43.4305 40.6474 43.6225 40.9834C43.8145 41.3034 43.9345 41.6634 43.9825 42.0634C44.0305 42.4474 43.9985 42.8394 43.8865 43.2394C43.7905 43.6394 43.6305 43.9994 43.4065 44.3194C43.1825 44.6394 42.8945 44.8954 42.5425 45.0874C42.2065 45.2794 41.8225 45.3674 41.3905 45.3514C41.0865 45.3354 40.8465 45.2234 40.6705 45.0154C40.4945 44.8074 40.3905 44.5834 40.3585 44.3434C40.3425 44.0874 40.4065 43.8554 40.5505 43.6474C40.7105 43.4394 40.9585 43.3274 41.2945 43.3114C41.6465 43.3114 41.9105 43.2394 42.0865 43.0954C42.2785 42.9514 42.3985 42.7914 42.4465 42.6154C42.5105 42.4234 42.5105 42.2474 42.4465 42.0874C42.3985 41.9274 42.3025 41.8234 42.1585 41.7754C41.8065 41.6314 41.4545 41.6474 41.1025 41.8234C40.7505 41.9994 40.4305 42.2634 40.1425 42.6154C39.8545 42.9674 39.6145 43.3754 39.4225 43.8394C39.2465 44.2874 39.1505 44.7194 39.1345 45.1354C39.1345 45.5514 39.2385 45.9114 39.4465 46.2154C39.6545 46.5194 40.0145 46.6954 40.5265 46.7434C41.0545 46.7914 41.5585 46.7034 42.0385 46.4794C42.5345 46.2394 42.9985 45.9354 43.4305 45.5674C43.8625 45.1834 44.2465 44.7754 44.5825 44.3434C44.9345 43.8954 45.2305 43.4874 45.4705 43.1194ZM56.5726 43.1674C56.7486 43.3114 56.7886 43.4874 56.6926 43.6954C56.4046 44.2714 56.1246 44.8714 55.8526 45.4954C55.5806 46.1034 55.2686 46.6794 54.9166 47.2234C54.4366 47.9754 53.8446 48.5514 53.1406 48.9514C52.4366 49.3514 51.7326 49.5114 51.0286 49.4314C50.6286 49.3834 50.2926 49.2954 50.0206 49.1674C49.7486 49.0234 49.5166 48.8474 49.3246 48.6394C49.1326 48.4314 48.9726 48.1994 48.8446 47.9434C48.7326 47.6714 48.6366 47.3994 48.5566 47.1274C48.4286 46.7434 48.3086 46.5194 48.1966 46.4554C48.1006 46.3754 48.0046 46.3994 47.9086 46.5274C47.8126 46.6554 47.7246 46.8474 47.6446 47.1034C47.5806 47.3594 47.5246 47.6234 47.4766 47.8954C47.3806 48.4714 47.1486 48.8874 46.7806 49.1434C46.4126 49.3994 46.0286 49.5034 45.6286 49.4554C45.2446 49.4074 44.9166 49.2154 44.6446 48.8794C44.3726 48.5434 44.2926 48.0714 44.4046 47.4634C44.6606 46.0874 44.9806 44.7514 45.3646 43.4554C45.7646 42.1434 46.1966 40.9274 46.6606 39.8074C47.1246 38.6874 47.6126 37.6794 48.1246 36.7834C48.6526 35.8874 49.1806 35.1594 49.7086 34.5994C50.0126 34.2634 50.3486 34.0554 50.7166 33.9754C51.0846 33.8954 51.4366 33.9034 51.7726 33.9994C52.1086 34.0794 52.3966 34.2314 52.6366 34.4554C52.8926 34.6794 53.0606 34.9354 53.1406 35.2234C53.2366 35.5114 53.2286 35.8154 53.1166 36.1354C53.0046 36.4554 52.7406 36.7434 52.3246 36.9994C52.1646 37.0954 51.9646 37.2714 51.7246 37.5274C51.5006 37.7834 51.2526 38.0874 50.9806 38.4394C50.7086 38.7754 50.4366 39.1594 50.1646 39.5914C49.8926 40.0074 49.6446 40.4314 49.4206 40.8634C49.1806 41.3274 49.1166 41.6074 49.2286 41.7034C49.3566 41.7834 49.6046 41.6714 49.9726 41.3674C50.3886 40.9994 50.8046 40.6874 51.2206 40.4314C51.6526 40.1754 52.0526 40.0074 52.4206 39.9274C53.0926 39.7994 53.6286 39.8234 54.0286 39.9994C54.4286 40.1594 54.7086 40.3914 54.8686 40.6954C55.0286 40.9834 55.0686 41.2954 54.9886 41.6314C54.9246 41.9674 54.7646 42.2474 54.5086 42.4714C54.2686 42.6954 53.9406 42.8314 53.5246 42.8794C53.1086 42.9114 52.6286 42.7674 52.0846 42.4474C52.0206 42.4154 51.8926 42.4154 51.7006 42.4474C51.5246 42.4794 51.3326 42.5434 51.1246 42.6394C50.9326 42.7354 50.7406 42.8714 50.5486 43.0474C50.3726 43.2074 50.2446 43.3994 50.1646 43.6234C50.0846 43.8474 50.0766 44.1034 50.1406 44.3914C50.2046 44.6794 50.3886 44.9994 50.6926 45.3514C50.9166 45.6234 51.1726 45.8554 51.4606 46.0474C51.7486 46.2234 52.0526 46.3114 52.3726 46.3114C52.7566 46.3114 53.1086 46.1914 53.4286 45.9514C53.7646 45.7114 54.0686 45.4234 54.3406 45.0874C54.6286 44.7514 54.8846 44.4074 55.1086 44.0554C55.3326 43.6874 55.5246 43.3834 55.6846 43.1434C55.7646 43.0314 55.8686 42.9674 55.9966 42.9514C56.1246 42.9354 56.2526 42.9594 56.3806 43.0234L56.5726 43.1674ZM64.2714 43.0954C64.3354 42.9834 64.4394 42.9274 64.5834 42.9274C64.7274 42.9114 64.8634 42.9354 64.9914 42.9994C65.1194 43.0634 65.2154 43.1594 65.2794 43.2874C65.3594 43.3994 65.3674 43.5274 65.3034 43.6714C65.0314 44.2314 64.6794 44.8474 64.2474 45.5194C63.8314 46.1914 63.3274 46.8154 62.7354 47.3914C62.1594 47.9674 61.4954 48.4474 60.7434 48.8314C59.9914 49.2154 59.1514 49.4074 58.2234 49.4074C57.2474 49.3914 56.4794 49.1514 55.9194 48.6874C55.3754 48.2234 55.0074 47.6474 54.8154 46.9594C54.6394 46.2714 54.6234 45.5194 54.7674 44.7034C54.9114 43.8874 55.1834 43.1274 55.5834 42.4234C55.9834 41.7034 56.4874 41.0954 57.0954 40.5994C57.7194 40.1034 58.4074 39.8154 59.1594 39.7354C60.0074 39.6554 60.6954 39.7354 61.2234 39.9754C61.7674 40.2154 62.1754 40.5434 62.4474 40.9594C62.7194 41.3594 62.8554 41.8074 62.8554 42.3034C62.8714 42.7994 62.7594 43.2714 62.5194 43.7194C62.2954 44.1514 61.9514 44.5114 61.4874 44.7994C61.0394 45.0874 60.4874 45.2314 59.8314 45.2314C59.3834 45.2314 58.9594 45.1754 58.5594 45.0634C58.4474 45.0314 58.3274 45.0074 58.1994 44.9914C58.0714 44.9754 57.9594 44.9914 57.8634 45.0394C57.7834 45.0874 57.7354 45.1754 57.7194 45.3034C57.7034 45.4314 57.7514 45.6154 57.8634 45.8554C57.9754 46.0794 58.1274 46.2794 58.3194 46.4554C58.5114 46.6154 58.7914 46.7114 59.1594 46.7434C59.6874 46.7914 60.2074 46.7034 60.7194 46.4794C61.2314 46.2394 61.7114 45.9354 62.1594 45.5674C62.6074 45.1834 63.0074 44.7674 63.3594 44.3194C63.7274 43.8714 64.0314 43.4634 64.2714 43.0954ZM58.4154 42.9994C58.2874 43.1754 58.2234 43.3674 58.2234 43.5754C58.2394 43.7834 58.4074 43.9114 58.7274 43.9594C58.9834 43.9914 59.2154 43.9754 59.4234 43.9114C59.7754 43.8314 60.0554 43.6714 60.2634 43.4314C60.4874 43.1754 60.6314 42.9194 60.6954 42.6634C60.7754 42.3914 60.7674 42.1594 60.6714 41.9674C60.5754 41.7594 60.3834 41.6634 60.0954 41.6794C59.7914 41.6954 59.4954 41.8314 59.2074 42.0874C58.9194 42.3274 58.6554 42.6314 58.4154 42.9994ZM69.5174 38.9674C69.3254 38.9034 69.1654 38.8714 69.0374 38.8714C68.9094 38.8714 68.7334 39.0394 68.5094 39.3754C68.0294 40.0954 67.5814 40.8714 67.1654 41.7034C66.7494 42.5354 66.4214 43.3194 66.1814 44.0554C65.9414 44.7754 65.8214 45.3994 65.8214 45.9274C65.8374 46.4554 66.0214 46.7674 66.3734 46.8634C66.5494 46.9114 66.7814 46.8314 67.0694 46.6234C67.3734 46.4154 67.7014 46.1274 68.0534 45.7594C68.4054 45.3914 68.7574 44.9754 69.1094 44.5114C69.4614 44.0314 69.7894 43.5594 70.0934 43.0954C70.1574 42.9834 70.2614 42.9274 70.4054 42.9274C70.5494 42.9114 70.6854 42.9354 70.8134 42.9994C70.9414 43.0634 71.0374 43.1594 71.1014 43.2874C71.1814 43.3994 71.1894 43.5274 71.1254 43.6714C70.6614 44.5994 70.1814 45.4474 69.6854 46.2154C69.2054 46.9674 68.7014 47.6074 68.1734 48.1354C67.6614 48.6474 67.1334 49.0314 66.5894 49.2874C66.0614 49.5434 65.5174 49.6234 64.9574 49.5274C64.4294 49.4474 64.0134 49.2234 63.7094 48.8554C63.4214 48.4874 63.2294 48.0314 63.1334 47.4874C63.0374 46.9274 63.0294 46.2954 63.1094 45.5914C63.1734 44.8714 63.3094 44.1274 63.5174 43.3594C63.7254 42.5914 63.9814 41.8154 64.2854 41.0314C64.5894 40.2314 64.9334 39.4634 65.3174 38.7274C65.5254 38.3274 65.5814 38.0714 65.4854 37.9594C65.4374 37.9114 65.3414 37.8954 65.1974 37.9114C65.0694 37.9274 64.9334 37.9594 64.7894 38.0074C64.6454 38.0394 64.5094 38.0874 64.3814 38.1514C64.2534 38.1994 64.1574 38.2474 64.0934 38.2954C63.6614 38.5834 63.2854 38.6874 62.9654 38.6074C62.6454 38.5274 62.4454 38.3594 62.3654 38.1034C62.2694 37.8474 62.3174 37.5674 62.5094 37.2634C62.7014 36.9434 63.1014 36.7114 63.7094 36.5674C63.9814 36.4874 64.2694 36.4634 64.5734 36.4954C64.8934 36.5114 65.2134 36.5594 65.5334 36.6394C65.8854 36.7194 66.1574 36.7274 66.3494 36.6634C66.5574 36.5994 66.7974 36.3674 67.0694 35.9674C67.3254 35.5994 67.5894 35.2874 67.8614 35.0314C68.1494 34.7754 68.4294 34.5594 68.7014 34.3834C69.2134 34.1274 69.7014 34.0554 70.1654 34.1674C70.6454 34.2634 71.0054 34.4714 71.2454 34.7914C71.5014 35.0954 71.5974 35.4634 71.5334 35.8954C71.4854 36.3114 71.1814 36.6954 70.6214 37.0474C70.5414 37.0954 70.4614 37.1514 70.3814 37.2154C70.3174 37.2634 70.2454 37.3194 70.1654 37.3834C70.0214 37.5114 69.9414 37.6314 69.9254 37.7434C69.9254 37.8394 70.0694 37.8954 70.3574 37.9114C70.5974 37.9274 70.8214 37.9034 71.0294 37.8394C71.2374 37.7754 71.4294 37.6794 71.6054 37.5514C72.0374 37.2634 72.4134 37.1594 72.7334 37.2394C73.0534 37.3194 73.2614 37.4794 73.3574 37.7194C73.4534 37.9594 73.3974 38.2314 73.1894 38.5354C72.9974 38.8394 72.6054 39.0634 72.0134 39.2074C71.6454 39.2874 71.2534 39.3034 70.8374 39.2554C70.4214 39.1914 69.9814 39.0954 69.5174 38.9674ZM40.5739 57.7114C41.3579 58.0314 41.9339 58.4714 42.3019 59.0314C42.6859 59.5754 42.9019 60.1754 42.9499 60.8314C43.0139 61.4714 42.9339 62.1354 42.7099 62.8234C42.4859 63.4954 42.1659 64.1274 41.7499 64.7194C41.6059 64.9274 41.4059 65.1354 41.1499 65.3434C40.8939 65.5514 40.6059 65.7274 40.2859 65.8714C39.9819 66.0154 39.6539 66.1274 39.3019 66.2074C38.9659 66.2714 38.6299 66.2634 38.2939 66.1834C37.5259 66.0234 36.9979 65.7354 36.7099 65.3194C36.4219 64.8874 36.3179 64.4794 36.3979 64.0954C36.4779 63.6954 36.7179 63.3834 37.1179 63.1594C37.5179 62.9354 38.0219 62.9434 38.6299 63.1834C38.9979 63.3434 39.3339 63.4074 39.6379 63.3754C39.9419 63.3274 40.2459 63.1274 40.5499 62.7754C40.7739 62.5194 40.9499 62.2154 41.0779 61.8634C41.2059 61.5114 41.2619 61.1594 41.2459 60.8074C41.2299 60.4394 41.1339 60.0954 40.9579 59.7754C40.7819 59.4554 40.5019 59.1994 40.1179 59.0074C39.7339 58.8314 39.3499 58.7594 38.9659 58.7914C38.5979 58.8234 38.1819 58.9994 37.7179 59.3194C37.1739 59.7194 36.7019 60.2474 36.3019 60.9034C35.9019 61.5594 35.5339 62.2874 35.1979 63.0874C34.8779 63.8874 34.5659 64.7354 34.2619 65.6314C33.9739 66.5274 33.6539 67.4154 33.3019 68.2954C33.1419 68.7114 32.9739 69.1194 32.7979 69.5194C32.6379 69.9194 32.5499 70.3034 32.5339 70.6714C32.5339 71.0394 32.6379 71.3914 32.8459 71.7274C33.0699 72.0474 33.4859 72.3354 34.0939 72.5914C34.4939 72.7514 34.8699 72.8714 35.2219 72.9514C35.5739 73.0314 35.9019 73.0394 36.2059 72.9754C36.5259 72.9114 36.8219 72.7674 37.0939 72.5434C37.3659 72.3034 37.6219 71.9434 37.8619 71.4634C38.1019 70.9994 38.3979 70.6954 38.7499 70.5514C39.1019 70.4074 39.4459 70.3754 39.7819 70.4554C40.1339 70.5194 40.4459 70.6874 40.7179 70.9594C40.9899 71.2154 41.1579 71.5274 41.2219 71.8954C41.3019 72.2474 41.2459 72.6314 41.0539 73.0474C40.8779 73.4634 40.5019 73.8634 39.9259 74.2474C39.1259 74.7914 38.3019 75.1114 37.4539 75.2074C36.6059 75.3034 35.7659 75.2794 34.9339 75.1354C34.1019 74.9914 33.3019 74.7754 32.5339 74.4874C31.7659 74.1994 31.0619 73.9354 30.4219 73.6954C30.0859 73.5834 29.8139 73.5034 29.6059 73.4554C29.4139 73.4074 29.2379 73.3914 29.0779 73.4074C28.9339 73.4234 28.7899 73.4714 28.6459 73.5514C28.5179 73.6154 28.3579 73.6954 28.1659 73.7914C27.4139 74.1594 26.7819 74.3194 26.2699 74.2714C25.7739 74.2234 25.3899 74.0554 25.1179 73.7674C24.8619 73.4794 24.7259 73.1274 24.7099 72.7114C24.6939 72.2954 24.8059 71.9034 25.0459 71.5354C25.2859 71.1674 25.6459 70.8794 26.1259 70.6714C26.6219 70.4634 27.2459 70.4234 27.9979 70.5514C28.5419 70.6474 28.9979 70.4314 29.3659 69.9034C29.7499 69.3754 30.1099 68.6794 30.4459 67.8154C30.7819 66.9354 31.1179 65.9594 31.4539 64.8874C31.7899 63.8154 32.1899 62.7834 32.6539 61.7914C33.1339 60.7994 33.7019 59.9194 34.3579 59.1514C35.0139 58.3834 35.8219 57.8714 36.7819 57.6154C37.4059 57.4394 38.0459 57.3594 38.7019 57.3754C39.3739 57.3754 39.9979 57.4874 40.5739 57.7114ZM55.9065 67.1914C55.9705 67.0794 56.0745 67.0154 56.2185 66.9994C56.3625 66.9834 56.4905 67.0074 56.6025 67.0714C56.7305 67.1354 56.8265 67.2314 56.8905 67.3594C56.9705 67.4714 56.9785 67.5994 56.9145 67.7434C56.4505 68.6714 55.9865 69.5114 55.5225 70.2634C55.0585 70.9994 54.5785 71.6234 54.0825 72.1354C53.5865 72.6474 53.0745 73.0314 52.5465 73.2874C52.0345 73.5274 51.4985 73.6154 50.9385 73.5514C50.4265 73.4874 50.0185 73.2794 49.7145 72.9274C49.4265 72.5594 49.2345 72.1354 49.1385 71.6554C49.1065 71.4794 49.0025 71.3754 48.8265 71.3434C48.6505 71.3114 48.4905 71.3914 48.3465 71.5834C48.1545 71.8554 47.9385 72.1114 47.6985 72.3514C47.4745 72.5914 47.2265 72.8074 46.9545 72.9994C46.6985 73.1754 46.4185 73.3194 46.1145 73.4314C45.8265 73.5274 45.5305 73.5674 45.2265 73.5514C44.5225 73.5034 43.9705 73.2954 43.5705 72.9274C43.1865 72.5434 42.9305 72.0714 42.8025 71.5114C42.6905 70.9354 42.6905 70.3034 42.8025 69.6154C42.9305 68.9274 43.1465 68.2554 43.4505 67.5994C43.7545 66.9274 44.1305 66.3114 44.5785 65.7514C45.0425 65.1754 45.5545 64.7274 46.1145 64.4074C46.6905 64.0714 47.2905 63.8954 47.9145 63.8794C48.5545 63.8474 49.2025 64.0474 49.8585 64.4794C50.1785 64.7034 50.4585 64.8154 50.6985 64.8154C50.9545 64.7994 51.1785 64.7194 51.3705 64.5754C51.5785 64.3834 51.8025 64.2394 52.0425 64.1434C52.2985 64.0474 52.5785 64.0234 52.8825 64.0714C53.1385 64.1194 53.3705 64.2154 53.5785 64.3594C53.7865 64.5034 53.9465 64.6794 54.0585 64.8874C54.1705 65.0954 54.2185 65.3194 54.2025 65.5594C54.1865 65.7994 54.0825 66.0394 53.8905 66.2794C53.8105 66.3754 53.7065 66.4714 53.5785 66.5674C53.4665 66.6634 53.3465 66.7674 53.2185 66.8794C52.8985 67.2154 52.6265 67.6074 52.4025 68.0554C52.1945 68.4874 52.0425 68.9034 51.9465 69.3034C51.8665 69.7034 51.8585 70.0554 51.9225 70.3594C51.9865 70.6474 52.1305 70.8154 52.3545 70.8634C52.5465 70.9114 52.7785 70.8314 53.0505 70.6234C53.3225 70.4154 53.6185 70.1354 53.9385 69.7834C54.2745 69.4314 54.6105 69.0314 54.9465 68.5834C55.2825 68.1194 55.6025 67.6554 55.9065 67.1914ZM49.5225 67.5034C49.6185 67.2634 49.6425 67.0554 49.5945 66.8794C49.5625 66.6874 49.4825 66.5274 49.3545 66.3994C49.0185 66.0954 48.6505 66.0234 48.2505 66.1834C47.8505 66.3434 47.4665 66.6234 47.0985 67.0234C46.7465 67.4234 46.4425 67.8874 46.1865 68.4154C45.9465 68.9274 45.8105 69.3994 45.7785 69.8314C45.7465 70.2314 45.7785 70.5034 45.8745 70.6474C45.9865 70.7914 46.1305 70.8634 46.3065 70.8634C46.4825 70.8474 46.6745 70.7754 46.8825 70.6474C47.0905 70.5034 47.2905 70.3514 47.4825 70.1914C47.8665 69.8394 48.2585 69.4154 48.6585 68.9194C49.0585 68.4234 49.3465 67.9514 49.5225 67.5034ZM67.3043 67.1914C67.3843 67.0794 67.4883 67.0234 67.6163 67.0234C67.7603 67.0074 67.8963 67.0314 68.0243 67.0954C68.1523 67.1594 68.2483 67.2474 68.3123 67.3594C68.3923 67.4714 68.4003 67.5994 68.3363 67.7434C68.0803 68.2554 67.7603 68.7994 67.3763 69.3754C67.0083 69.9514 66.5843 70.4794 66.1043 70.9594C65.6243 71.4234 65.0963 71.7914 64.5203 72.0634C63.9443 72.3194 63.3363 72.3754 62.6963 72.2314C62.1683 72.6474 61.6163 72.9594 61.0403 73.1674C60.4643 73.3594 59.8883 73.4634 59.3123 73.4794C58.7523 73.4794 58.2163 73.3994 57.7043 73.2394C57.1923 73.0794 56.7363 72.8394 56.3363 72.5194C55.8723 72.1514 55.5363 71.6794 55.3283 71.1034C55.1363 70.5274 55.0483 69.8954 55.0643 69.2074C55.0803 68.5034 55.1843 67.7594 55.3763 66.9754C55.5683 66.1914 55.8163 65.4154 56.1203 64.6474C56.4243 63.8634 56.7683 63.1114 57.1523 62.3914C57.5523 61.6554 57.9603 60.9914 58.3763 60.3994C58.7923 59.8074 59.2083 59.3114 59.6243 58.9114C60.0403 58.4954 60.4163 58.2154 60.7523 58.0714C61.4083 57.7994 61.9763 57.7594 62.4563 57.9514C62.9523 58.1434 63.3043 58.4314 63.5123 58.8154C63.7203 59.1994 63.7523 59.6154 63.6083 60.0634C63.4803 60.5114 63.1203 60.8554 62.5283 61.0954C62.4003 61.1434 62.2483 61.1914 62.0723 61.2394C61.8963 61.2714 61.7363 61.3114 61.5923 61.3594C61.4323 61.4074 61.2483 61.5354 61.0403 61.7434C60.8323 61.9354 60.6163 62.1834 60.3923 62.4874C60.1683 62.7754 59.9443 63.1114 59.7203 63.4954C59.4963 63.8794 59.2883 64.2794 59.0963 64.6954C59.0483 64.8234 59.0323 64.9274 59.0483 65.0074C59.0803 65.0874 59.1283 65.1434 59.1923 65.1754C59.2723 65.2074 59.3523 65.2154 59.4323 65.1994C59.5283 65.1834 59.6163 65.1514 59.6963 65.1034C60.3043 64.5114 60.9443 64.1274 61.6163 63.9514C62.2883 63.7754 62.9043 63.7994 63.4643 64.0234C63.9603 64.2154 64.3443 64.5034 64.6163 64.8874C64.9043 65.2714 65.0963 65.7114 65.1923 66.2074C65.2883 66.6874 65.2963 67.2074 65.2163 67.7674C65.1523 68.3274 65.0083 68.8794 64.7843 69.4234C65.0563 69.3114 65.3203 69.1674 65.5763 68.9914C65.8323 68.8154 66.0643 68.6234 66.2723 68.4154C66.4963 68.2074 66.6963 67.9994 66.8723 67.7914C67.0483 67.5674 67.1923 67.3674 67.3043 67.1914ZM59.6963 70.4314C59.9043 70.5274 60.1203 70.5354 60.3443 70.4554C60.2963 70.1514 60.3363 69.8634 60.4643 69.5914C60.5923 69.3194 60.7603 69.0874 60.9683 68.8954C61.1763 68.7034 61.4003 68.5674 61.6403 68.4874C61.8803 68.4074 62.0883 68.4154 62.2643 68.5114C62.5203 67.9994 62.6723 67.4954 62.7203 66.9994C62.7683 66.5034 62.6323 66.1514 62.3123 65.9434C62.0563 65.7674 61.7683 65.7434 61.4483 65.8714C61.1443 65.9834 60.8403 66.1914 60.5363 66.4954C60.2483 66.7834 59.9843 67.1274 59.7443 67.5274C59.5043 67.9274 59.3283 68.3274 59.2163 68.7274C59.1043 69.1114 59.0803 69.4634 59.1443 69.7834C59.2083 70.0874 59.3923 70.3034 59.6963 70.4314Z" fill="#FFFBE0"/>
</svg>
