<svg width="18" height="22" viewBox="0 0 18 22" fill="none" xmlns="http://www.w3.org/2000/svg">
<path fill-rule="evenodd" clip-rule="evenodd" d="M11.951 0.25C15.343 0.25 17.289 1.929 17.289 4.854V19.39C17.289 20 16.975 20.549 16.447 20.856C15.921 21.164 15.287 21.17 14.755 20.87L8.795 17.503L2.78 20.877C2.52 21.023 2.235 21.097 1.949 21.097C1.654 21.097 1.359 21.018 1.091 20.86C0.564 20.553 0.25 20.004 0.25 19.395V4.671C0.25 1.861 2.197 0.25 5.592 0.25H11.951ZM11.951 1.75H5.592C3.043 1.75 1.75 2.732 1.75 4.671V19.395C1.75 19.489 1.804 19.54 1.849 19.566C1.894 19.594 1.965 19.614 2.047 19.568L8.429 15.988C8.657 15.861 8.936 15.86 9.165 15.989L15.492 19.563C15.575 19.611 15.646 19.589 15.691 19.562C15.736 19.535 15.789 19.484 15.789 19.39L15.7886 4.74004C15.7811 3.87937 15.6145 1.75 11.951 1.75ZM12.3898 6.9785C12.8038 6.9785 13.1398 7.3145 13.1398 7.7285C13.1398 8.1425 12.8038 8.4785 12.3898 8.4785H5.0718C4.6578 8.4785 4.3218 8.1425 4.3218 7.7285C4.3218 7.3145 4.6578 6.9785 5.0718 6.9785H12.3898Z" fill="white" stroke="white" stroke-width="0.5"/>
</svg>
