<svg width="14" height="22" viewBox="0 0 14 22" fill="none" xmlns="http://www.w3.org/2000/svg">
<path d="M2.75006 15.7501L1.75006 20.7501M10.7501 15.7501L11.7501 20.7501M6.75006 11.7501C5.22806 11.7501 3.62006 12.0431 2.35806 12.4341C1.40806 12.7281 0.644057 14.0721 0.762057 15.1631C0.806057 15.5671 1.11906 15.7501 1.44806 15.7501H12.0521C12.3821 15.7501 12.6941 15.5671 12.7381 15.1631C12.8561 14.0721 12.0921 12.7281 11.1421 12.4331C9.88106 12.0441 8.27206 11.7501 6.75006 11.7501Z" stroke="#FFFBE0" stroke-width="1.5" stroke-linecap="round" stroke-linejoin="round"/>
<path d="M10.523 12.7501C11.763 11.1821 12.75 9.11812 12.75 7.10512C12.75 3.05512 10.064 0.750122 6.75 0.750122C3.436 0.750122 0.75 3.05512 0.75 7.10512C0.75 9.11812 1.738 11.1821 2.977 12.7501" stroke="#FFFBE0" stroke-width="1.5" stroke-linecap="round" stroke-linejoin="round"/>
<path d="M8.42 0.750122C8.629 1.88312 8.75 3.31812 8.75 5.02412C8.75 7.44312 8.386 9.92812 7.944 11.7501M5.08 0.750122C4.871 1.88312 4.75 3.31812 4.75 5.02412C4.75 7.44312 5.114 9.92812 5.556 11.7501" stroke="#FFFBE0" stroke-width="1.5" stroke-linecap="round" stroke-linejoin="round"/>
</svg>
