<svg width="315" height="444" viewBox="0 0 315 444" fill="none" xmlns="http://www.w3.org/2000/svg">
<mask id="path-1-inside-1_1_1263" fill="white">
<path fill-rule="evenodd" clip-rule="evenodd" d="M0 15C0 6.71573 6.71573 0 15 0H300C308.284 0 315 6.71573 315 15L315 307C303.848 307 294.808 315.954 294.808 327C294.808 338.046 303.848 347 315 347L315 429C315 437.284 308.284 444 300 444H15C6.71573 444 0 437.284 0 429V347C11.1519 347 20.1923 338.046 20.1923 327C20.1923 315.954 11.1519 307 0 307V15Z"/>
</mask>
<path fill-rule="evenodd" clip-rule="evenodd" d="M0 15C0 6.71573 6.71573 0 15 0H300C308.284 0 315 6.71573 315 15L315 307C303.848 307 294.808 315.954 294.808 327C294.808 338.046 303.848 347 315 347L315 429C315 437.284 308.284 444 300 444H15C6.71573 444 0 437.284 0 429V347C11.1519 347 20.1923 338.046 20.1923 327C20.1923 315.954 11.1519 307 0 307V15Z" fill="white"/>
<path d="M315 15H316H315ZM315 307V308H316V307H315ZM315 347H316V346H315V347ZM315 429H316H315ZM0 347V346H-1V347H0ZM0 307H-1V308H0V307ZM15 -1C6.16344 -1 -1 6.16345 -1 15H1C1 7.26802 7.26801 1 15 1V-1ZM300 -1H15V1H300V-1ZM316 15C316 6.16344 308.837 -1 300 -1V1C307.732 1 314 7.26801 314 15H316ZM316 307L316 15H314L314 307H316ZM295.808 327C295.808 316.516 304.391 308 315 308V306C303.305 306 293.808 315.393 293.808 327H295.808ZM315 346C304.391 346 295.808 337.484 295.808 327H293.808C293.808 338.607 303.305 348 315 348V346ZM316 429L316 347H314L314 429H316ZM300 445C308.837 445 316 437.837 316 429H314C314 436.732 307.732 443 300 443V445ZM15 445H300V443H15V445ZM-1 429C-1 437.837 6.16344 445 15 445V443C7.26801 443 1 436.732 1 429H-1ZM-1 347V429H1V347H-1ZM19.1923 327C19.1923 337.484 10.6087 346 0 346V348C11.6951 348 21.1923 338.607 21.1923 327H19.1923ZM0 308C10.6087 308 19.1923 316.516 19.1923 327H21.1923C21.1923 315.393 11.6951 306 0 306V308ZM-1 15V307H1V15H-1Z" fill="#D8D8D8" mask="url(#path-1-inside-1_1_1263)"/>
</svg>
